# xmcd
#
# Track frame offsets: 
#        150
#        19291
#        38492
#        55553
#        73188
#        89361
#        105431
#        125771
#        143189
#        159354
#        177531
#        197444
#        215950
#        238188
#        255286
#        274269
#        293903
#        313945
#
# Disc length: 4395 seconds
#
# Revision: 0
# Processed by: cddbd v1.5.2PL0 Copyright (c) Steve Scherf et al.
# Submitted via: ExactAudioCopyFreeDBPlugin 1.0
#
DISCID=0e112912
DTITLE=รวมศืลปิน - กีตาร์หวาน อีสานสะออน ชุด 3
DYEAR=1900
DGENRE=
TTITLE0=ไหมไทย ใจตะวัน - ดาวมีไว้เบิ่ง
TTITLE1=ดอกอ้อ ทุ่งทอง - คอยทางที่นางรอง
TTITLE2=ศร สินชัย - นอนอายเสียงอึ่ง
TTITLE3=ข้าวทิพย์ ธิดาดิน - อ้ายฮักเขาแล้วแม่นบ่
TTITLE4=เอกพล มนต์ตระการ - อวยพรข้างรั้ว
TTITLE5=ศร สินชัย - คอยน้องที่ห้องเช่า
TTITLE6=ก้านตอง ทุ่งเงิน - ลบเบอร์ก็ลืมเธอไม่ได้
TTITLE7=ไหมไทย ใจตะวัน - เจ้าทำให้อ้าย..มีวาเลนไทน์ทุกวัน
TTITLE8=ดอกอ้อ ทุ่งทอง - คึดนำเขาเฮ๊ดหยัง
TTITLE9=เอกพล มนต์ตระการ - คอยข่าวสารอุดร
TTITLE10=ข้าวทิพย์ ธิดาดิน - สาว ม.ปลาย ยังอายฮัก
TTITLE11=ศร สินชัย - อีแต๊กเที่ยวสุดท้าย
TTITLE12=ดอกอ้อ ทุ่งทอง - ขอยืนเคียงข้าง
TTITLE13=ไหมไทย ใจตะวัน - เหนื่อยจังอยากฟังเสียง
TTITLE14=ก้านตอง ทุ่งเงิน - ทบพิษบาดแผลไม่ไหว
TTITLE15=ศร สินชัย - มีความคิดฮอดมาฝาก
TTITLE16=ดอกอ้อ ทุ่งทอง - วอนอ้ายลบลายเสือ
TTITLE17=เอกพล มนต์ตระการ - กลับบ้านบ่ได้
EXTD=
EXTT0=
EXTT1=
EXTT2=
EXTT3=
EXTT4=
EXTT5=
EXTT6=
EXTT7=
EXTT8=
EXTT9=
EXTT10=
EXTT11=
EXTT12=
EXTT13=
EXTT14=
EXTT15=
EXTT16=
EXTT17=
PLAYORDER=
